Coordinates
version=1
nRows=19
nColumns=36
inDegrees=yes

Units are S.I. units (second, meters, Newtons, ...)
If the header above contains a line with 'inDegrees', this indicates whether rotational values are in degrees (yes) or radians (no).

endheader
time	pelvis_tilt	pelvis_list	pelvis_rotation	pelvis_tx	pelvis_ty	pelvis_tz	hip_flexion_r	hip_adduction_r	hip_rotation_r	knee_angle_r	knee_angle_r_beta	ankle_angle_r	subtalar_angle_r	mtp_angle_r	hip_flexion_l	hip_adduction_l	hip_rotation_l	knee_angle_l	knee_angle_l_beta	ankle_angle_l	subtalar_angle_l	mtp_angle_l	lumbar_extension	lumbar_bending	lumbar_rotation	arm_flex_r	arm_add_r	arm_rot_r	elbow_flex_r	pro_sup_r	arm_flex_l	arm_add_l	arm_rot_l	elbow_flex_l	pro_sup_l
      4.28750000	    -10.63566142	      0.44031457	     -0.47888810	      0.41497998	      0.96669680	     -0.04713588	     12.18835783	    -12.16425005	     -3.97520294	      0.83969352	      0.01465542	     -0.15808624	     -2.63006754	     -7.49999987	     14.45839639	    -10.35974383	    -10.08144105	      3.60404628	      0.06290247	     -4.17857463	     -6.87841836	     -7.49999987	     -7.95367827	     -0.63394764	      0.06675780	      2.49078023	    -13.87969522	      2.35399560	     51.39076845	     77.50746358	      6.23543701	    -17.33390417	     18.09733598	     59.40359158	     86.46015402
      4.29166670	    -10.66196371	      0.45903541	     -0.53047887	      0.41513049	      0.96592919	     -0.04665985	     12.13901933	    -12.17544551	     -3.79739902	      0.75924845	      0.01325139	     -0.08850965	     -2.79351810	     -7.49999987	     14.29989738	    -10.34015839	    -10.33000223	      3.31614209	      0.05787760	     -4.10158225	     -6.63560663	     -7.49999987	     -7.77875008	     -0.70377399	      0.04196677	      2.49341534	    -13.89857949	      2.18690538	     51.64081218	     77.58907324	      6.19741097	    -17.27394189	     17.94309241	     59.61261042	     86.46766787
      4.29583330	    -10.70829330	      0.42948404	     -0.52579103	      0.41434522	      0.96989051	     -0.04514432	     12.13875720	    -12.11767242	     -3.78441261	      0.69488927	      0.01212811	     -0.07912158	     -2.78653995	     -7.49999987	     14.29366946	    -10.37505129	    -10.37560123	      3.18454676	      0.05558083	     -4.11591781	     -6.61751767	     -7.49999987	     -7.66461159	     -0.74030287	     -0.00327660	      2.61547976	    -13.91203318	      2.15989258	     51.69246277	     77.58967824	      6.31616234	    -17.23991285	     17.92735855	     59.64560470	     86.46595467
      4.30000000	    -10.67862065	      0.44650118	     -0.59167308	      0.41534650	      0.97018225	     -0.04549290	     12.04820493	    -12.11219861	     -3.58924105	      0.60898547	      0.01062880	     -0.18275808	     -2.78174467	     -7.49999987	     13.93693696	    -10.33599355	    -10.84637583	      2.64554334	      0.04617344	     -4.20433885	     -5.96666567	     -7.49999987	     -7.61143361	     -0.77692924	      0.02681665	      2.61554336	    -13.78659903	      1.71304858	     51.83220526	     78.02238932	      6.34936703	    -17.07413081	     17.67387317	     59.46807054	     86.60516608
      4.30416670	    -10.70393344	      0.44577871	     -0.61886744	      0.41491752	      0.96936337	     -0.04566973	     12.05830019	    -12.09870676	     -3.49793556	      0.56887810	      0.00992880	     -0.43931569	     -2.87481709	     -7.49999987	     13.80846978	    -10.31761041	    -11.13152028	      2.38992597	      0.04171208	     -4.13606463	     -5.50019640	     -7.49999987	     -7.53192667	     -0.80419023	      0.02172315	      2.64871953	    -13.75226009	      1.49275788	     51.96380740	     77.62490075	      6.46957857	    -16.90991273	     17.63210492	     59.30784508	     86.27600479
      4.30833330	    -10.71869867	      0.42556736	     -0.57607831	      0.41564172	      0.96821413	     -0.04621210	     12.06455753	    -12.12034131	     -3.53918516	      0.54376797	      0.00949054	     -0.40620239	     -2.95333476	     -7.49999987	     13.75462518	    -10.28115176	    -11.20795468	      2.20668040	      0.03851384	     -4.16752901	     -5.44970228	     -7.49999987	     -7.48006841	     -0.77906768	     -0.07498150	      2.70460409	    -13.79649174	      1.43080964	     51.99803237	     77.62988285	      6.51935533	    -16.79304051	     17.61177134	     59.32551868	     86.27633209
      4.31250000	    -10.71827065	      0.41439947	     -0.51846020	      0.41614480	      0.96779433	     -0.04727605	     12.04530356	    -12.18096042	     -3.52611115	      0.53043436	      0.00925783	     -0.47677729	     -2.97129345	     -7.49999987	     13.69556715	    -10.21435435	    -11.28224461	      2.06063726	      0.03596490	     -4.16727297	     -5.39731805	     -7.49999987	     -7.40880591	     -0.77336413	     -0.19942177	      2.73436901	    -13.83293750	      1.36575412	     52.03656887	     77.63023298	      6.56679101	    -16.64489041	     17.59465444	     59.33653488	     86.27535078
      4.31666670	    -10.59569646	      0.42469504	     -0.51508565	      0.41630746	      0.96747425	     -0.04633432	     11.88327080	    -12.19813661	     -3.34521508	      0.50838340	      0.00887296	     -0.70220420	     -3.38536157	     -7.49999987	     13.35735781	    -10.17339769	    -11.70451926	      1.72757309	      0.03015184	     -3.99671556	     -4.69743896	     -7.49999987	     -7.48777729	     -0.79842550	     -0.28543208	      2.73441882	    -13.68920091	      0.70820333	     52.30387441	     77.64029637	      6.53884542	    -16.29348558	     16.90875750	     59.02738232	     86.23634592
      4.32083330	    -10.62329796	      0.37417470	     -0.45391988	      0.41644307	      0.96913184	     -0.04554762	     11.85812297	    -12.12029559	     -3.35775473	      0.50718408	      0.00885203	     -0.69704964	     -3.41045516	     -7.49999987	     13.33876202	    -10.21700789	    -11.74954988	      1.64584314	      0.02872538	     -3.98137458	     -4.67099313	     -7.49999987	     -7.42057782	     -0.85109744	     -0.35044612	      2.75193747	    -13.69233277	      0.67210651	     52.32587108	     77.64158547	      6.59937762	    -16.21299795	     16.89274695	     59.05396704	     86.23704877
      4.32500000	    -10.55115629	      0.23731741	     -0.39432680	      0.41623240	      0.96686473	     -0.04354563	     11.73039593	    -11.89657087	     -3.30454545	      0.50323352	      0.00878308	     -0.63216866	     -3.72111183	     -7.49999987	     13.17027629	    -10.39899813	    -12.12269814	      1.46231266	      0.02552217	     -3.73299122	     -3.95144744	     -7.49999987	     -7.40844649	     -0.77484391	     -0.38162326	      2.68013352	    -13.46190537	      0.01032358	     52.51980419	     77.19663115	      6.59624867	    -15.93909407	     16.29258719	     58.90881129	     85.49082064
      4.32916670	    -10.64099568	      0.17478606	     -0.29281259	      0.41560048	      0.96804211	     -0.04637127	     11.83454491	    -11.86249239	     -3.25648888	      0.50969877	      0.00889592	     -0.77482711	     -4.08895592	     -7.49999987	     13.28201476	    -10.43880268	    -12.45238886	      1.41202499	      0.02464449	     -3.52564225	     -3.27371050	     -7.49999987	     -7.29745832	     -0.72614259	     -0.48027914	      2.57855733	    -13.32293212	     -0.60581376	     52.82254877	     77.32891772	      6.56151537	    -15.68639143	     15.84140146	     58.88715668	     85.66166893
      4.33333330	    -10.63046781	      0.11092052	     -0.19646911	      0.41553842	      0.96920753	     -0.04583179	     11.84809472	    -11.82374149	     -3.24081227	      0.52285980	      0.00912562	     -0.76294257	     -4.10252202	     -7.49999987	     13.29632530	    -10.49017074	    -12.50901752	      1.34374642	      0.02345280	     -3.52539128	     -3.26526887	     -7.49999987	     -7.27134931	     -0.75352498	     -0.55172333	      2.59229994	    -13.30820623	     -0.63094001	     52.83565260	     77.33352078	      6.63828899	    -15.61266927	     15.83458474	     58.91199352	     85.66848973
      4.33750000	    -10.60197473	      0.09916624	     -0.16867494	      0.41491722	      0.97065311	     -0.04520228	     11.88747663	    -11.82353267	     -3.24061772	      0.56959125	      0.00994124	     -0.76266468	     -4.10437351	     -7.49999987	     13.29054811	    -10.49764695	    -12.51305139	      1.33860891	      0.02336313	     -3.52668190	     -3.26215166	     -7.49999987	     -7.26894205	     -0.75353011	     -0.55632984	      2.59422848	    -13.30572192	     -0.63363274	     52.83710570	     77.33364315	      6.64256985	    -15.60511157	     15.83372689	     58.91273547	     85.66876942
      4.34166670	    -10.53450163	     -0.04721094	      0.02813202	      0.41533942	      0.96969069	     -0.04661849	     11.76033041	    -11.71502888	     -3.21376100	      0.52660678	      0.00919102	     -1.07313534	     -4.60223191	     -7.49999987	     13.23764762	    -10.59610001	    -12.91795936	      1.17291012	      0.02047114	     -3.33325065	     -2.16972678	     -7.49999987	     -7.38217489	     -0.56684583	     -0.87080052	      2.64878586	    -12.90340527	     -1.69649241	     53.01999087	     77.38042450	      6.70406119	    -15.12583359	     15.06068621	     58.46127541	     85.77322150
      4.34583330	    -10.51571644	     -0.05710964	      0.05173844	      0.41509968	      0.97062960	     -0.04618351	     11.78743037	    -11.71434968	     -3.21023118	      0.57142037	      0.00997317	     -1.07336390	     -4.60136569	     -7.49999987	     13.23323754	    -10.60112254	    -12.92193986	      1.17141966	      0.02044513	     -3.33351793	     -2.16899126	     -7.49999987	     -7.38316526	     -0.57171062	     -0.87416210	      2.64895101	    -12.90367985	     -1.69915202	     53.02057806	     77.38064841	      6.70422319	    -15.11770882	     15.06118099	     58.46214961	     85.77365276
      4.35000000	    -10.38846898	     -0.12778600	      0.15867419	      0.41513574	      0.97109354	     -0.04724113	     11.64771361	    -11.67415111	     -3.08856793	      0.59369681	      0.01036196	     -1.24734507	     -4.79762781	     -7.49999987	     13.13915229	    -10.64622917	    -13.27081542	      1.14363221	      0.01996015	     -3.20749086	     -1.49870710	     -7.49999987	     -7.62125862	     -0.52775052	     -0.98175708	      2.68775201	    -12.63509813	     -2.56191054	     53.12039966	     76.97590780	      6.81271157	    -14.61832905	     14.49369444	     58.15400992	     85.19381412
      4.35416670	    -10.36634294	     -0.14443564	      0.26275350	      0.41369490	      0.97443662	     -0.04594963	     11.65417600	    -11.65612770	     -3.05620246	      0.61497202	      0.01073329	     -1.33831888	     -4.90305404	     -7.49999987	     13.20379536	    -10.66579017	    -13.50905521	      1.15842081	      0.02021826	     -3.17800290	     -1.07179078	     -7.49999987	     -7.79847437	     -0.53166288	     -0.96416844	      2.48235480	    -12.30961764	     -3.82568776	     53.43994406	     79.17534226	      6.95076277	    -14.34623840	     13.87780200	     57.86074501	     87.98630446
      4.35833330	    -10.28686572	     -0.17397129	      0.32391941	      0.41383846	      0.97283460	     -0.04577121	     11.61203068	    -11.61235125	     -3.04640697	      0.63329983	      0.01105317	     -1.35284942	     -4.96700467	     -7.49999987	     13.17889366	    -10.71359079	    -13.79135550	      1.17142423	      0.02044521	     -3.05032979	     -0.53759886	     -7.49999987	     -7.93122692	     -0.54265658	     -1.08599627	      2.52725428	    -12.12962529	     -4.11775580	     53.45503515	     79.24899866	      6.98567051	    -14.17192365	     13.53169135	     57.68157854	     87.81735014
      4.36250000	    -10.23168188	     -0.19933803	      0.45932454	      0.41580576	      0.97155922	     -0.04611081	     11.49848129	    -11.56113448	     -3.04803922	      0.64633847	      0.01128073	     -1.38400150	     -5.18744703	     -7.49999987	     13.15761199	    -10.74709980	    -13.85345922	      1.16475997	      0.02032890	     -3.04498068	     -0.39421208	     -7.49999987	     -7.98083258	     -0.56007884	     -1.18727774	      2.38617770	    -11.91140201	     -4.77947047	     53.60146898	     79.38740877	      6.94395179	    -13.99026088	     13.11581346	     57.58039115	     88.16276199
